# xmcd CD database file
#
# Track frame offsets:
#	150
#	40572
#	98200
#	146225
#	194090
#
# Disc length: 2694 seconds
#
# Revision: 0
# Processed by: cddbd v1.5.1PL0 Copyright (c) Steve Scherf et al.
# Submitted via: CDex 1.50
#
DISCID=450a8405
DTITLE=Miles Davis - Miles In Berlin
DYEAR=1964
DGENRE=Jazz
TTITLE0=Milestones
TTITLE1=Autumn Leaves
TTITLE2=So What
TTITLE3=Walkin'
TTITLE4=Theme
EXTD=YEAR: 1964
EXTT0=
EXTT1=
EXTT2=
EXTT3=
EXTT4=
PLAYORDER=
